<svg width="55" height="55" viewBox="0 0 55 55" fill="none" xmlns="http://www.w3.org/2000/svg">
<rect width="55" height="55" rx="4" fill="#FF7777"/>
<path d="M22.8522 20.7188V24H22.0141V16.7273H22.8522V19.3977H22.9232C23.051 19.116 23.2428 18.8923 23.4985 18.7266C23.7565 18.5585 24.0998 18.4744 24.5283 18.4744C24.9 18.4744 25.2255 18.549 25.5049 18.6982C25.7842 18.8449 26.0009 19.071 26.1547 19.3764C26.311 19.6795 26.3891 20.0653 26.3891 20.5341V24H25.551V20.5909C25.551 20.1577 25.4386 19.8227 25.2137 19.5859C24.9912 19.3468 24.6822 19.2273 24.2868 19.2273C24.0122 19.2273 23.766 19.2853 23.5482 19.4013C23.3328 19.5173 23.1623 19.6866 23.0368 19.9091C22.9137 20.1316 22.8522 20.4015 22.8522 20.7188ZM31.786 19.767L31.0331 19.9801C30.9858 19.8546 30.9159 19.7327 30.8236 19.6143C30.7336 19.4936 30.6105 19.3942 30.4543 19.3161C30.298 19.2379 30.098 19.1989 29.8541 19.1989C29.5203 19.1989 29.2422 19.2758 29.0196 19.4297C28.7994 19.5812 28.6894 19.7741 28.6894 20.0085C28.6894 20.2169 28.7651 20.3814 28.9166 20.5021C29.0682 20.6229 29.3049 20.7235 29.6269 20.804L30.4365 21.0028C30.9242 21.1212 31.2876 21.3023 31.5267 21.5462C31.7658 21.7876 31.8854 22.099 31.8854 22.4801C31.8854 22.7926 31.7954 23.072 31.6155 23.3182C31.4379 23.5644 31.1894 23.7585 30.8698 23.9006C30.5502 24.0426 30.1785 24.1136 29.7547 24.1136C29.1984 24.1136 28.7379 23.9929 28.3733 23.7514C28.0087 23.5099 27.7779 23.1572 27.6808 22.6932L28.4763 22.4943C28.5521 22.7879 28.6953 23.008 28.906 23.1548C29.1191 23.3016 29.3972 23.375 29.7405 23.375C30.1311 23.375 30.4413 23.2921 30.6709 23.1264C30.9029 22.9583 31.0189 22.7571 31.0189 22.5227C31.0189 22.3333 30.9526 22.1747 30.82 22.0469C30.6875 21.9167 30.4839 21.8196 30.2093 21.7557L29.3002 21.5426C28.8006 21.4242 28.4337 21.2408 28.1993 20.9922C27.9673 20.7412 27.8513 20.4276 27.8513 20.0511C27.8513 19.7434 27.9377 19.4711 28.1105 19.2344C28.2857 18.9976 28.5236 18.8118 28.8243 18.6768C29.1273 18.5419 29.4706 18.4744 29.8541 18.4744C30.3939 18.4744 30.8177 18.5928 31.1254 18.8295C31.4356 19.0663 31.6557 19.3788 31.786 19.767ZM33.985 16.7273V24H33.1469V16.7273H33.985Z" fill="white"/>
<path d="M10.9277 38.0994C10.3927 38.0994 9.93697 37.9538 9.56055 37.6626C9.18413 37.3691 8.89648 36.9441 8.69762 36.3878C8.49876 35.8291 8.39933 35.1544 8.39933 34.3636C8.39933 33.5777 8.49876 32.9065 8.69762 32.3501C8.89885 31.7914 9.18768 31.3653 9.5641 31.0717C9.94289 30.7758 10.3974 30.6278 10.9277 30.6278C11.458 30.6278 11.9114 30.7758 12.2878 31.0717C12.6666 31.3653 12.9554 31.7914 13.1543 32.3501C13.3555 32.9065 13.4561 33.5777 13.4561 34.3636C13.4561 35.1544 13.3567 35.8291 13.1578 36.3878C12.959 36.9441 12.6713 37.3691 12.2949 37.6626C11.9185 37.9538 11.4628 38.0994 10.9277 38.0994ZM10.9277 37.3182C11.458 37.3182 11.87 37.0625 12.1635 36.5511C12.4571 36.0398 12.6039 35.3106 12.6039 34.3636C12.6039 33.7339 12.5364 33.1977 12.4015 32.755C12.2689 32.3123 12.0771 31.9749 11.8262 31.7429C11.5776 31.5109 11.2781 31.3949 10.9277 31.3949C10.4022 31.3949 9.99142 31.6541 9.69549 32.1726C9.39956 32.6887 9.2516 33.419 9.2516 34.3636C9.2516 34.9934 9.31789 35.5284 9.45046 35.9688C9.58304 36.4091 9.77362 36.7441 10.0222 36.9737C10.2731 37.2034 10.575 37.3182 10.9277 37.3182ZM15.8159 37.0057L15.7591 37.3892C15.7188 37.6591 15.6573 37.9479 15.5744 38.2557C15.4939 38.5634 15.4099 38.8535 15.3223 39.1257C15.2347 39.398 15.1625 39.6146 15.1056 39.7756H14.4664C14.4972 39.6241 14.5375 39.424 14.5872 39.1754C14.6369 38.9268 14.6866 38.6487 14.7363 38.3409C14.7884 38.0355 14.831 37.723 14.8642 37.4034L14.9068 37.0057H15.8159ZM19.0421 30.7273V38H18.1614V31.6506H18.1188L16.3432 32.8295V31.9347L18.1614 30.7273H19.0421ZM23.5059 38.0994C22.9708 38.0994 22.5151 37.9538 22.1387 37.6626C21.7623 37.3691 21.4746 36.9441 21.2757 36.3878C21.0769 35.8291 20.9775 35.1544 20.9775 34.3636C20.9775 33.5777 21.0769 32.9065 21.2757 32.3501C21.477 31.7914 21.7658 31.3653 22.1422 31.0717C22.521 30.7758 22.9756 30.6278 23.5059 30.6278C24.0362 30.6278 24.4895 30.7758 24.8659 31.0717C25.2447 31.3653 25.5336 31.7914 25.7324 32.3501C25.9337 32.9065 26.0343 33.5777 26.0343 34.3636C26.0343 35.1544 25.9348 35.8291 25.736 36.3878C25.5371 36.9441 25.2495 37.3691 24.873 37.6626C24.4966 37.9538 24.0409 38.0994 23.5059 38.0994ZM23.5059 37.3182C24.0362 37.3182 24.4481 37.0625 24.7417 36.5511C25.0352 36.0398 25.182 35.3106 25.182 34.3636C25.182 33.7339 25.1145 33.1977 24.9796 32.755C24.847 32.3123 24.6552 31.9749 24.4043 31.7429C24.1557 31.5109 23.8562 31.3949 23.5059 31.3949C22.9803 31.3949 22.5695 31.6541 22.2736 32.1726C21.9777 32.6887 21.8297 33.419 21.8297 34.3636C21.8297 34.9934 21.896 35.5284 22.0286 35.9688C22.1612 36.4091 22.3517 36.7441 22.6003 36.9737C22.8513 37.2034 23.1531 37.3182 23.5059 37.3182ZM29.7559 38.0994C29.2208 38.0994 28.7651 37.9538 28.3887 37.6626C28.0123 37.3691 27.7246 36.9441 27.5257 36.3878C27.3269 35.8291 27.2275 35.1544 27.2275 34.3636C27.2275 33.5777 27.3269 32.9065 27.5257 32.3501C27.727 31.7914 28.0158 31.3653 28.3922 31.0717C28.771 30.7758 29.2256 30.6278 29.7559 30.6278C30.2862 30.6278 30.7395 30.7758 31.1159 31.0717C31.4947 31.3653 31.7836 31.7914 31.9824 32.3501C32.1837 32.9065 32.2843 33.5777 32.2843 34.3636C32.2843 35.1544 32.1848 35.8291 31.986 36.3878C31.7871 36.9441 31.4995 37.3691 31.123 37.6626C30.7466 37.9538 30.2909 38.0994 29.7559 38.0994ZM29.7559 37.3182C30.2862 37.3182 30.6981 37.0625 30.9917 36.5511C31.2852 36.0398 31.432 35.3106 31.432 34.3636C31.432 33.7339 31.3645 33.1977 31.2296 32.755C31.097 32.3123 30.9052 31.9749 30.6543 31.7429C30.4057 31.5109 30.1062 31.3949 29.7559 31.3949C29.2303 31.3949 28.8195 31.6541 28.5236 32.1726C28.2277 32.6887 28.0797 33.419 28.0797 34.3636C28.0797 34.9934 28.146 35.5284 28.2786 35.9688C28.4112 36.4091 28.6017 36.7441 28.8503 36.9737C29.1013 37.2034 29.4031 37.3182 29.7559 37.3182ZM34.644 37.0057L34.5872 37.3892C34.5469 37.6591 34.4854 37.9479 34.4025 38.2557C34.322 38.5634 34.238 38.8535 34.1504 39.1257C34.0628 39.398 33.9906 39.6146 33.9338 39.7756H33.2946C33.3253 39.6241 33.3656 39.424 33.4153 39.1754C33.465 38.9268 33.5147 38.6487 33.5645 38.3409C33.6165 38.0355 33.6592 37.723 33.6923 37.4034L33.7349 37.0057H34.644ZM36.2633 38L39.5162 31.5653V31.5085H35.7662V30.7273H40.4252V31.5511L37.1866 38H36.2633ZM44.0403 38.0994C43.5716 38.0994 43.1537 38.0189 42.7868 37.858C42.4222 37.697 42.1322 37.4732 41.9167 37.1868C41.7037 36.898 41.5877 36.563 41.5687 36.1818H42.4636C42.4825 36.4162 42.563 36.6186 42.7051 36.7891C42.8471 36.9571 43.033 37.0874 43.2626 37.1797C43.4922 37.272 43.7467 37.3182 44.0261 37.3182C44.3386 37.3182 44.6156 37.2637 44.8571 37.1548C45.0985 37.0459 45.2879 36.8944 45.4252 36.7003C45.5626 36.5062 45.6312 36.2812 45.6312 36.0256C45.6312 35.758 45.5649 35.5225 45.4324 35.3189C45.2998 35.1129 45.1056 34.9519 44.85 34.8359C44.5943 34.7199 44.2818 34.6619 43.9125 34.6619H43.3301V33.8807H43.9125C44.2013 33.8807 44.4546 33.8286 44.6724 33.7244C44.8926 33.6203 45.0642 33.4735 45.1873 33.2841C45.3128 33.0947 45.3755 32.8722 45.3755 32.6165C45.3755 32.3703 45.3211 32.156 45.2122 31.9737C45.1033 31.7914 44.9494 31.6494 44.7505 31.5476C44.554 31.4458 44.322 31.3949 44.0545 31.3949C43.8036 31.3949 43.5668 31.4411 43.3443 31.5334C43.1241 31.6233 42.9442 31.7547 42.8045 31.9276C42.6648 32.098 42.5891 32.304 42.5772 32.5455H41.725C41.7392 32.1643 41.854 31.8305 42.0694 31.544C42.2849 31.2552 42.5666 31.0303 42.9146 30.8693C43.265 30.7083 43.6497 30.6278 44.0687 30.6278C44.5185 30.6278 44.9044 30.719 45.2264 30.9013C45.5484 31.0812 45.7958 31.3191 45.9686 31.6151C46.1414 31.911 46.2278 32.2306 46.2278 32.5739C46.2278 32.9834 46.1201 33.3326 45.9047 33.6214C45.6916 33.9103 45.4016 34.1103 45.0346 34.2216V34.2784C45.4939 34.3542 45.8526 34.5495 46.1106 34.8643C46.3687 35.1768 46.4977 35.5639 46.4977 36.0256C46.4977 36.4209 46.39 36.776 46.1745 37.0909C45.9615 37.4034 45.6703 37.6496 45.301 37.8295C44.9316 38.0095 44.5114 38.0994 44.0403 38.0994Z" fill="white"/>
</svg>
